<?xml version="1.0" encoding="UTF-8"?><svg id="a" xmlns="http://www.w3.org/2000/svg" width="95.77" height="27.64" viewBox="0 0 95.77 27.64"><defs><style>.b{fill:#fd0000;}.b,.c,.d,.e{stroke-width:0px;}.c{fill:#df0d10;}.d{fill:#f4f4f4;}.e{fill:#f2e1d1;}</style></defs><path class="e" d="M27.64,4.61c.72,0,1.44,0,2.16,0,.14,0,.14,0,.15.14,0,.05,0,.1,0,.14v8.65s0,.1,0,.14c0,.13,0,.14-.15.14-.72,0-1.44,0-2.16,0h0c0-3.07,0-6.14,0-9.21h0Z"/><path class="e" d="M25.34,2.3c.72,0,1.43,0,2.15,0,.15,0,.16,0,.16.16,0,.72,0,1.43,0,2.15h0c-.71,0-1.42,0-2.13,0-.18,0-.17,0-.17-.17,0-.71,0-1.42,0-2.13h0Z"/><path class="e" d="M27.64,13.82c0,.72,0,1.43,0,2.15,0,.16,0,.16-.16.16-.72,0-1.43,0-2.15,0,0,0,0,0,0,0,0-.71,0-1.42,0-2.13,0-.18-.01-.17.17-.17.71,0,1.42,0,2.13,0h0Z"/><path class="e" d="M25.34,16.12c0,.72,0,1.43,0,2.15,0,.15,0,.16-.16.16-.72,0-1.43,0-2.15,0h0c0-.71,0-1.42,0-2.13,0-.18-.02-.17.17-.17.71,0,1.42,0,2.13,0h0Z"/><path class="e" d="M2.3,13.82c-.72,0-1.44,0-2.16,0-.14,0-.14,0-.15-.14,0-.05,0-.1,0-.14,0-2.88,0-5.77,0-8.65,0-.05,0-.1,0-.14,0-.13,0-.14.15-.14.72,0,1.44,0,2.16,0h0c0,3.07,0,6.14,0,9.21h0Z"/><path class="e" d="M4.61,2.3c0-.7,0-1.4,0-2.1,0-.22-.03-.21.19-.21.22,0,.44,0,.66,0,1.91,0,3.81,0,5.72,0,.07,0,.13,0,.2,0,.13,0,.13,0,.13.15,0,.72,0,1.44,0,2.16h0c-2.3,0-4.61,0-6.91,0h0Z"/><path class="e" d="M18.43,2.3c0-.7,0-1.4,0-2.1,0-.22-.03-.21.19-.21.22,0,.44,0,.66,0,1.91,0,3.81,0,5.72,0,.07,0,.13,0,.2,0,.13,0,.13,0,.13.15,0,.72,0,1.44,0,2.16h0c-2.3,0-4.61,0-6.91,0,0,0,0,0,0,0Z"/><path class="e" d="M2.3,4.61c0-.72,0-1.43,0-2.15,0-.16,0-.16.16-.16.72,0,1.43,0,2.15,0h0c0,.71,0,1.42,0,2.13,0,.18.01.17-.17.17-.71,0-1.42,0-2.13,0h0Z"/><path class="e" d="M11.52,2.3c.72,0,1.43,0,2.15,0,.15,0,.16,0,.16.16,0,.72,0,1.43,0,2.15h0c-.71,0-1.42,0-2.13,0-.18,0-.17,0-.17-.17,0-.71,0-1.42,0-2.13h0Z"/><path class="e" d="M16.12,4.61c0-.72,0-1.43,0-2.15,0-.16,0-.16.16-.16.72,0,1.43,0,2.15,0h0c0,.71,0,1.42,0,2.13,0,.18.01.17-.17.17-.71,0-1.42,0-2.13,0,0,0,0,0,0,0Z"/><path class="e" d="M13.82,4.61c.77,0,1.54,0,2.3,0h0c0,.72,0,1.44,0,2.16,0,.14,0,.14-.14.14-.66,0-1.32,0-1.99,0-.19,0-.17.01-.17-.17,0-.71,0-1.42,0-2.13h0Z"/><path class="e" d="M4.61,16.12c-.72,0-1.43,0-2.15,0-.15,0-.16,0-.16-.16,0-.72,0-1.43,0-2.15h0c.71,0,1.42,0,2.13,0,.19,0,.17,0,.17.17,0,.71,0,1.42,0,2.13h0Z"/><path class="e" d="M6.91,18.43c-.72,0-1.43,0-2.15,0-.16,0-.16,0-.16-.16,0-.72,0-1.43,0-2.15h0c.71,0,1.42,0,2.13,0,.19,0,.17-.01.17.17,0,.71,0,1.42,0,2.13h0Z"/><path class="e" d="M9.21,20.73c-.72,0-1.43,0-2.15,0-.15,0-.16,0-.16-.16,0-.72,0-1.43,0-2.15h0c.71,0,1.42,0,2.13,0,.19,0,.17,0,.17.17,0,.71,0,1.42,0,2.13h0Z"/><path class="e" d="M23.03,18.43c0,.72,0,1.43,0,2.15,0,.16,0,.16-.16.16-.72,0-1.43,0-2.15,0h0c0-.71,0-1.42,0-2.13,0-.18-.01-.17.17-.17.71,0,1.42,0,2.13,0h0Z"/><path class="e" d="M11.52,23.03c-.72,0-1.43,0-2.15,0-.16,0-.16,0-.16-.16,0-.72,0-1.43,0-2.15h0c.71,0,1.42,0,2.13,0,.19,0,.17-.01.17.17,0,.71,0,1.42,0,2.13h0Z"/><path class="e" d="M20.73,20.73c0,.72,0,1.43,0,2.15,0,.15,0,.16-.16.16-.72,0-1.43,0-2.15,0,0,0,0,0,0,0,0-.71,0-1.42,0-2.13,0-.18-.02-.17.17-.17.71,0,1.42,0,2.13,0h0Z"/><path class="e" d="M13.82,25.34c-.72,0-1.43,0-2.15,0-.15,0-.16,0-.16-.16,0-.72,0-1.43,0-2.15,0,0,0,0,0,0,.71,0,1.42,0,2.13,0,.19,0,.17,0,.17.17,0,.71,0,1.42,0,2.13,0,0,0,0,0,0Z"/><path class="e" d="M18.43,23.03c0,.72,0,1.43,0,2.15,0,.16,0,.16-.16.16-.72,0-1.43,0-2.15,0h0c0-.71,0-1.42,0-2.13,0-.18-.01-.17.17-.17.71,0,1.42,0,2.13,0h0Z"/><path class="e" d="M16.12,25.34c0,.71,0,1.42,0,2.12,0,.21-.01.18-.16.18-.66,0-1.32,0-1.98,0-.15,0-.16.03-.16-.18,0-.71,0-1.42,0-2.12h0c.77,0,1.53,0,2.3,0h0Z"/><path class="c" d="M16.12,25.34c-.77,0-1.53,0-2.3,0,0-.71,0-1.42,0-2.13,0-.18.01-.17-.17-.17-.71,0-1.42,0-2.13,0,0-.71,0-1.42,0-2.13,0-.19.02-.17-.17-.17-.71,0-1.42,0-2.13,0,0-.71,0-1.42,0-2.13,0-.18.01-.17-.17-.17-.71,0-1.42,0-2.13,0,0-.71,0-1.42,0-2.13,0-.19.02-.17-.17-.17-.71,0-1.42,0-2.13,0,0-.71,0-1.42,0-2.13,0-.18.01-.17-.17-.17-.71,0-1.42,0-2.13,0,0-3.07,0-6.14,0-9.21.71,0,1.42,0,2.13,0,.19,0,.17,0,.17-.17,0-.71,0-1.42,0-2.13h6.91c0,.71,0,1.42,0,2.13,0,.18-.01.17.17.17.71,0,1.42,0,2.13,0,0,.71,0,1.42,0,2.13,0,.18-.02.17.17.17.66,0,1.32,0,1.99,0,.14,0,.14,0,.14-.14,0-.72,0-1.44,0-2.16.71,0,1.42,0,2.13,0,.19,0,.17,0,.17-.17,0-.71,0-1.42,0-2.13h6.91c0,.71,0,1.42,0,2.13,0,.18-.01.17.17.17.71,0,1.42,0,2.13,0,0,3.07,0,6.14,0,9.21-.71,0-1.42,0-2.13,0-.18,0-.17,0-.17.17,0,.71,0,1.42,0,2.13-.71,0-1.42,0-2.13,0-.19,0-.17-.01-.17.17,0,.71,0,1.42,0,2.13-.71,0-1.42,0-2.13,0-.18,0-.17,0-.17.17,0,.71,0,1.42,0,2.13-.71,0-1.42,0-2.13,0-.19,0-.17-.01-.17.17,0,.71,0,1.42,0,2.13-.71,0-1.42,0-2.13,0-.18,0-.17,0-.17.17,0,.71,0,1.42,0,2.13ZM2.42,9.2c0,.81,0,1.61,0,2.42,0,.38,0,.77,0,1.15,0,.11,0,.11.14.08.04-.01.08,0,.09.04,0,.04.02.1-.04.12-.02.01-.06,0-.09,0-.1-.01-.1.05-.11.12,0,.12.07.11.15.11.06,0,.09.02.08.08,0,.05.03.12-.05.15-.04.01-.11-.02-.12.05-.01.09.07.06.12.07.03,0,.04.04.05.06.05.06.05.06.11,0,.08-.08.17-.1.22-.01.04.07.08.07.13.07.26,0,.52,0,.78,0,.07,0,.12.01.15-.09.01-.05.13-.05.14,0,.03.11.11.09.18.09.13,0,.27,0,.4,0,.06,0,.09.04.05.09-.03.05-.03.09-.01.15.05.15.06.31-.01.47-.02.05-.03.1,0,.13.04.05.04.1.04.16,0,.28,0,.56,0,.83,0,.04.02.09-.02.1-.16.05-.07.17-.09.26-.01.07.01.11.09.1.07,0,.13,0,.2,0,.6,0,1.21,0,1.81,0,.22,0,.19-.02.19.2,0,.39,0,.79,0,1.18,0,.1.02.15.13.07.05-.04.09-.02.1.04,0,.04.01.1-.05.11-.02,0-.04,0-.06,0-.08,0-.12.02-.12.11,0,.11.04.13.13.12.07,0,.1.02.1.1,0,.09-.01.15-.12.14-.03,0-.05.02-.05.06,0,.04.02.06.05.05.08-.01.1.06.14.1.1.08.07-.11.16-.09.05,0,.13,0,.13.01.06.15.19.1.29.1.21,0,.42-.02.63,0,.13.02.13-.11.22-.12.11-.01.12.15.25.12.12-.03.25,0,.37,0,.04,0,.08,0,.1.03.02.04,0,.07-.03.1-.09.07-.08.12,0,.21.08.09.07.11-.03.24-.02.02-.04.06-.03.07.08.13,0,.26,0,.4,0,.36,0,.73,0,1.09,0,.16-.02.16.18.16.65,0,1.31,0,1.96,0,.18,0,.17,0,.17.17,0,.6,0,1.19,0,1.79,0,.05-.03.14.03.16.1.04.18.11.26.18.02.02.04-.02.06-.04.09-.09.17-.11.22-.03.04.06.07.07.13.07.07,0,.13,0,.2,0,.47,0,.94,0,1.41,0,.04,0,.08,0,.1.03.02.04,0,.07-.03.1-.09.07-.08.12,0,.21.08.09.07.11-.04.24-.02.02-.04.06-.03.07.08.13,0,.26,0,.4,0,.36,0,.73,0,1.09,0,.16-.02.16.18.16.53,0,1.06,0,1.58,0,.09,0,.21.03.28-.02.08-.05-.01-.17,0-.25.01-.07.03-.14.03-.22,0-.36-.01-.73,0-1.09,0-.11-.09-.21-.04-.32.07-.12-.04-.2-.07-.3-.02-.08,0-.1.07-.11.11,0,.21,0,.32,0,.11,0,.22.02.32,0,.1-.03.19,0,.28,0,.34,0,.67,0,1.01,0,.08,0,.17.03.2-.09,0-.03.07-.02.09.02.02.03,0,.08.07.07.07,0,.05-.07.05-.11,0-.07,0-.13,0-.2,0-.61,0-1.23,0-1.84,0-.14,0-.14.14-.14.24,0,.48,0,.72,0,.44,0,.88,0,1.32,0,.11,0,.11-.05.13-.13.01-.07-.09-.1-.03-.17.05-.06.02-.15.02-.22,0-.33,0-.65,0-.98,0-.12.02-.25-.06-.36.11-.13-.01-.24-.05-.35-.02-.06,0-.09.06-.09.07,0,.13,0,.2,0,.59,0,1.17,0,1.76,0,.05,0,.12.03.15-.04.06-.13.09-.09.13.01.01.03.05.03.08.02.01,0,.03-.03.03-.04,0-.07,0-.13,0-.2,0-.53,0-1.06,0-1.58,0-.15-.03-.3.02-.45.15,0,.3-.01.46-.01.56,0,1.11,0,1.67,0,.05,0,.1.02.14-.02.04-.04.03-.35-.02-.37-.08-.03-.07-.07-.07-.13,0-.25,0-.5,0-.75,0-.04,0-.07.03-.11.11-.16.11-.16,0-.37-.04-.07-.03-.14.02-.21.1-.13.1-.13,0-.24-.02-.02-.03-.05-.02-.08,0-.03.04-.04.07-.04.07,0,.13,0,.2,0,.58,0,1.15,0,1.73,0,.08,0,.17.03.2-.09.01-.04.08-.03.1.04,0,.03.02.05.06.05.06,0,.06-.04.06-.08,0-.03,0-.06,0-.09,0-2.73,0-5.45,0-8.18,0-.13-.01-.21-.17-.18-.07.01-.07-.05-.07-.1,0-.04.02-.07.07-.07.04,0,.08,0,.11,0,.05,0,.05-.05.05-.09,0-.03-.01-.07-.03-.07-.05-.01-.11,0-.17-.02-.05-.01-.02-.09-.08-.1-.09-.01-.05.1-.11.11-.06,0-.16.04-.18-.03-.03-.12-.12-.08-.18-.08-.44,0-.88,0-1.32,0-.1,0-.19,0-.29,0-.03,0-.05-.02-.05-.05,0-.02,0-.04.02-.05.09-.11.09-.11,0-.26-.04-.07-.07-.15.03-.22.07-.06.1-.29.04-.32-.14-.06-.08-.15-.09-.24,0-.2,0-.4,0-.6,0-.05,0-.13.02-.13.12-.03.1-.12.1-.2,0-.27.03-.23-.23-.23-2.07,0-4.15,0-6.22,0-.04,0-.08,0-.12,0-.08,0-.12.01-.12.11,0,.5,0,1,0,1.5,0,.04-.01.09.04.12.13.07.09.17.02.25-.08.1-.11.17.03.24.03.01.02.08-.02.09-.05.01-.11,0-.17,0-.48,0-.96,0-1.44,0-.07,0-.16-.04-.21.08-.02.06-.17.06-.2,0-.08-.18-.1-.06-.15.01-.03.03-.07.02-.09-.02-.02-.03-.01-.08-.07-.07-.07,0-.05.07-.05.11,0,.07,0,.13,0,.2,0,.61,0,1.23,0,1.84,0,.14,0,.14-.14.14-.41,0-.83,0-1.24,0-.31,0-.61,0-.92,0-.23,0-.23,0-.24-.22,0-.05,0-.1,0-.14,0-.44,0-.88,0-1.32,0-.09,0-.18-.13-.16-.07.01-.11-.02-.1-.09,0-.06.03-.08.09-.08.03,0,.06,0,.09,0,.03,0,.05-.02.05-.05,0-.04-.02-.05-.05-.06-.09,0-.2.02-.19-.14,0-.04-.06-.04-.11,0-.1.1-.14.11-.23.02-.04-.05-.07-.06-.11-.05-.31.03-.63-.06-.93.05-.05.02-.12.02-.16-.02-.04-.04-.09-.05-.13-.03-.14.07-.26,0-.4,0-.1,0-.1,0-.03-.12.01-.02.03-.03.01-.04-.12-.08.11-.19-.03-.27,0-.1.06-.19.05-.3-.01-.36-.01-.73,0-1.09,0-.1-.06-.2-.01-.31.05-.14,0-.17-.16-.17-.03,0-.06,0-.09,0-2.06,0-4.13,0-6.19,0-.05,0-.1,0-.14,0-.08,0-.1.03-.09.1,0,.17,0,.35,0,.52,0,.18.02.37,0,.55-.02.16.11.32,0,.48,0,.01.01.07.03.07.15.02.1.17.07.2-.1.11-.12.2,0,.3.03.02,0,.08-.04.08-.06,0-.11,0-.17,0-.47,0-.94,0-1.41,0-.09,0-.18-.04-.23.09-.02.05-.16.05-.19-.02-.06-.12-.09-.11-.13,0-.01.04-.06.03-.1.03-.04,0-.06.02-.06.05,0,.04.02.07.06.07.13-.01.1.08.1.15,0,.09-.06.08-.12.08-.09,0-.11.03-.12.11,0,.12.05.13.14.12.08,0,.1.03.09.1-.01.09-.06.08-.12.04-.09-.06-.12-.01-.11.07,0,.07,0,.13,0,.2,0,1.12,0,2.25,0,3.37Z"/><path class="b" d="M2.42,9.2c0-1.12,0-2.25,0-3.37,0-.07,0-.13,0-.2,0-.09.02-.14.11-.07.06.04.1.05.12-.04,0-.07-.02-.11-.09-.1-.09.01-.15,0-.14-.12,0-.09.03-.12.12-.11.06,0,.12.01.12-.08,0-.07.03-.16-.1-.15-.05,0-.07-.02-.06-.07,0-.03.02-.05.06-.05.04,0,.09,0,.1-.03.04-.12.07-.13.13,0,.04.07.17.07.19.02.05-.13.15-.09.23-.09.47,0,.94,0,1.41,0,.06,0,.12,0,.17,0,.05,0,.07-.06.04-.08-.13-.11-.1-.19,0-.3.03-.03.07-.17-.07-.2-.01,0-.04-.06-.03-.07.1-.16-.03-.32,0-.48.02-.18,0-.36,0-.55,0-.17,0-.35,0-.52,0-.07.01-.11.09-.1.05,0,.1,0,.14,0,2.06,0,4.13,0,6.19,0,.03,0,.06,0,.09,0,.17,0,.21.03.16.17-.05.12.02.21.01.31-.01.36-.01.73,0,1.09,0,.11-.05.2-.05.3.14.08-.09.19.03.27.02.01,0,.02-.01.04-.07.11-.07.11.03.12.13,0,.26.07.4,0,.04-.02.09-.01.13.03.05.05.12.04.16.02.31-.12.62-.03.93-.05.04,0,.08,0,.11.05.08.1.12.09.23-.02.04-.04.11-.04.11,0-.01.16.09.13.19.14.03,0,.05.02.05.06,0,.04-.02.05-.05.05-.03,0-.06,0-.09,0-.06,0-.09.02-.09.08,0,.08.03.11.1.09.14-.03.13.06.13.16,0,.44,0,.88,0,1.32,0,.05,0,.1,0,.14,0,.22,0,.22.24.22.31,0,.61,0,.92,0,.41,0,.83,0,1.24,0,.14,0,.14,0,.14-.14,0-.61,0-1.23,0-1.84,0-.07,0-.13,0-.2,0-.04-.02-.1.05-.11.06,0,.05.04.07.07.02.04.07.05.09.02.05-.07.07-.19.15-.01.03.06.18.06.2,0,.05-.13.13-.08.21-.08.48,0,.96,0,1.44,0,.06,0,.12,0,.17,0,.04,0,.06-.07.02-.09-.15-.06-.12-.14-.03-.24.07-.08.11-.18-.02-.25-.06-.03-.04-.08-.04-.12,0-.5,0-1,0-1.5,0-.1.04-.11.12-.11.04,0,.08,0,.12,0,2.07,0,4.15,0,6.22,0,.26,0,.22-.04.23.23,0,.08.02.17-.1.2-.02,0-.02.09-.02.13,0,.2,0,.4,0,.6,0,.08-.05.18.09.24.06.03.04.26-.04.32-.09.07-.06.15-.03.22.08.15.09.14,0,.26-.01.01-.02.03-.02.05,0,.03.02.05.05.05.1,0,.19,0,.29,0,.44,0,.88,0,1.32,0,.06,0,.15-.04.18.08.02.07.12.03.18.03.05,0,.02-.12.11-.11.06,0,.03.09.08.1.05.01.11,0,.17.02.01,0,.02.05.03.07,0,.04,0,.08-.05.09-.04,0-.08,0-.11,0-.05,0-.06.03-.07.07,0,.05,0,.11.07.1.16-.03.17.05.17.18,0,2.73,0,5.45,0,8.18,0,.03,0,.06,0,.09,0,.04,0,.08-.06.08-.04,0-.05-.02-.06-.05-.01-.07-.08-.08-.1-.04-.04.12-.13.09-.2.09-.58,0-1.15,0-1.73,0-.07,0-.13,0-.2,0-.03,0-.06,0-.07.04,0,.03,0,.05.02.08.1.11.1.11,0,.24-.05.07-.05.14-.02.21.12.21.12.21,0,.37-.02.04-.03.07-.03.11,0,.25,0,.5,0,.75,0,.06,0,.1.07.13.05.02.06.34.02.37-.04.04-.09.02-.14.02-.56,0-1.11,0-1.67,0-.15,0-.3,0-.46.01-.05.15-.02.3-.02.45,0,.53,0,1.06,0,1.58,0,.07,0,.13,0,.2,0,.02-.02.04-.03.04-.03,0-.06.01-.08-.02-.04-.1-.07-.15-.13-.01-.03.07-.1.04-.15.04-.59,0-1.17,0-1.76,0-.07,0-.13,0-.2,0-.06,0-.08.03-.06.09.04.11.16.22.05.35.07.11.06.23.06.36,0,.33,0,.65,0,.98,0,.07.03.16-.02.22-.07.08.04.11.03.17-.02.09-.02.14-.13.13-.44,0-.88,0-1.32,0-.24,0-.48,0-.72,0-.13,0-.14,0-.14.14,0,.61,0,1.23,0,1.84,0,.07,0,.13,0,.2,0,.04.02.1-.05.11-.06,0-.05-.04-.07-.07-.02-.04-.08-.05-.09-.02-.03.12-.12.09-.2.09-.34,0-.67,0-1.01,0-.09,0-.18-.03-.28,0-.1.03-.21,0-.32,0-.11,0-.21,0-.32,0-.07,0-.09.02-.07.11.02.1.13.18.07.3-.06.11.04.2.04.32-.02.36,0,.73,0,1.09,0,.07-.02.15-.03.22-.01.07.08.19,0,.25-.07.05-.18.02-.28.02-.53,0-1.06,0-1.58,0-.2,0-.18,0-.18-.16,0-.36,0-.73,0-1.09,0-.13.09-.26,0-.4,0-.01.02-.05.03-.07.1-.14.12-.15.04-.24-.07-.08-.09-.14,0-.21.03-.02.05-.06.03-.1-.02-.04-.07-.03-.1-.03-.47,0-.94,0-1.41,0-.07,0-.13,0-.2,0-.06,0-.09,0-.13-.07-.05-.08-.13-.06-.22.03-.02.02-.04.06-.06.04-.08-.07-.15-.14-.26-.18-.06-.02-.03-.1-.03-.16,0-.59,0-1.19,0-1.79,0-.18.01-.17-.17-.17-.65,0-1.31,0-1.96,0-.2,0-.18,0-.18-.16,0-.36,0-.73,0-1.09,0-.13.09-.26,0-.4,0-.01.02-.05.03-.07.1-.13.12-.15.03-.24-.07-.08-.09-.14,0-.21.03-.02.05-.06.03-.1-.02-.04-.07-.03-.1-.03-.12,0-.26-.02-.37,0-.13.03-.14-.13-.25-.12-.09.01-.09.14-.22.12-.21-.03-.42,0-.63,0-.1,0-.23.05-.29-.1,0-.02-.09,0-.13-.01-.09-.02-.05.18-.16.09-.05-.04-.06-.11-.14-.1-.03,0-.05-.02-.05-.05,0-.04.02-.06.05-.06.11.02.13-.04.12-.14,0-.07-.03-.11-.1-.1-.09.01-.14-.01-.13-.12,0-.09.04-.12.12-.11.02,0,.04,0,.06,0,.07-.01.06-.07.05-.11,0-.06-.05-.08-.1-.04-.11.08-.13.03-.13-.07,0-.39,0-.79,0-1.18,0-.22.03-.2-.19-.2-.6,0-1.21,0-1.81,0-.07,0-.13,0-.2,0-.08,0-.1-.04-.09-.1.02-.09-.07-.21.09-.26.04-.01.02-.07.02-.1,0-.28,0-.56,0-.83,0-.06,0-.11-.04-.16-.03-.04-.02-.09,0-.13.08-.15.06-.31.01-.47-.02-.06-.02-.1.01-.15.03-.05,0-.09-.05-.09-.13,0-.27,0-.4,0-.07,0-.15.03-.18-.09-.01-.05-.13-.05-.14,0-.03.1-.08.09-.15.09-.26,0-.52,0-.78,0-.05,0-.09,0-.13-.07-.05-.08-.14-.06-.22.01-.06.05-.06.06-.11,0-.02-.02-.02-.05-.05-.06-.05-.01-.13.02-.12-.07,0-.07.08-.03.12-.05.08-.03.04-.09.05-.15,0-.06-.03-.08-.08-.08-.08,0-.16.01-.15-.11,0-.08,0-.13.11-.12.03,0,.06,0,.09,0,.05-.02.05-.08.04-.12,0-.04-.04-.05-.09-.04-.13.03-.14.03-.14-.08,0-.38,0-.77,0-1.15,0-.81,0-1.61,0-2.42ZM6.88,8.06h0c.34,0,.69,0,1.03,0,.14,0,.14,0,.15-.14,0-.24,0-.48,0-.72,0-.43,0-.86,0-1.29,0-.15,0-.15-.16-.15-.14,0-.29,0-.43,0-.53,0-1.05,0-1.58,0-.09,0-.13.02-.13.13,0,.68,0,1.36,0,2.04,0,.13,0,.14.15.14.33,0,.65,0,.98,0ZM7.6,15.72s-.02-.04-.04-.05c-.03,0-.06,0-.06.04,0,.04,0,.07.06.07.03,0,.05-.02.05-.06Z"/><path class="d" d="M6.88,8.06c-.33,0-.65,0-.98,0-.14,0-.15,0-.15-.14,0-.68,0-1.36,0-2.04,0-.11.04-.13.13-.13.53,0,1.05,0,1.58,0,.14,0,.29,0,.43,0,.16,0,.16,0,.16.15,0,.43,0,.86,0,1.29,0,.24,0,.48,0,.72,0,.13,0,.14-.15.14-.34,0-.69,0-1.03,0h0Z"/><path class="c" d="M7.6,15.72s-.02.06-.05.06c-.05,0-.06-.03-.06-.07,0-.03.03-.04.06-.04.03,0,.05.02.04.05Z"/><path class="e" d="M60.38,4.61c.72,0,1.44,0,2.16,0,.14,0,.14,0,.15.14,0,.05,0,.1,0,.14v8.65s0,.1,0,.14c0,.13,0,.14-.15.14-.72,0-1.44,0-2.16,0h0c0-3.07,0-6.14,0-9.21h0Z"/><path class="e" d="M58.08,2.3c.72,0,1.43,0,2.15,0,.15,0,.16,0,.16.16,0,.72,0,1.43,0,2.15h0c-.71,0-1.42,0-2.13,0-.18,0-.17,0-.17-.17,0-.71,0-1.42,0-2.13h0Z"/><path class="e" d="M60.38,13.82c0,.72,0,1.43,0,2.15,0,.16,0,.16-.16.16-.72,0-1.43,0-2.15,0,0,0,0,0,0,0,0-.71,0-1.42,0-2.13,0-.18-.01-.17.17-.17.71,0,1.42,0,2.13,0h0Z"/><path class="e" d="M58.08,16.12c0,.72,0,1.43,0,2.15,0,.15,0,.16-.16.16-.72,0-1.43,0-2.15,0h0c0-.71,0-1.42,0-2.13,0-.18-.02-.17.17-.17.71,0,1.42,0,2.13,0h0Z"/><path class="e" d="M35.05,13.82c-.72,0-1.44,0-2.16,0-.14,0-.14,0-.15-.14,0-.05,0-.1,0-.14,0-2.88,0-5.77,0-8.65,0-.05,0-.1,0-.14,0-.13,0-.14.15-.14.72,0,1.44,0,2.16,0h0c0,3.07,0,6.14,0,9.21h0Z"/><path class="e" d="M37.35,2.3c0-.7,0-1.4,0-2.1,0-.22-.03-.21.19-.21.22,0,.44,0,.66,0,1.91,0,3.81,0,5.72,0,.07,0,.13,0,.2,0,.13,0,.13,0,.13.15,0,.72,0,1.44,0,2.16h0c-2.3,0-4.61,0-6.91,0h0Z"/><path class="e" d="M51.17,2.3c0-.7,0-1.4,0-2.1,0-.22-.03-.21.19-.21.22,0,.44,0,.66,0,1.91,0,3.81,0,5.72,0,.07,0,.13,0,.2,0,.13,0,.13,0,.13.15,0,.72,0,1.44,0,2.16h0c-2.3,0-4.61,0-6.91,0,0,0,0,0,0,0Z"/><path class="e" d="M35.05,4.61c0-.72,0-1.43,0-2.15,0-.16,0-.16.16-.16.72,0,1.43,0,2.15,0h0c0,.71,0,1.42,0,2.13,0,.18.01.17-.17.17-.71,0-1.42,0-2.13,0h0Z"/><path class="e" d="M44.26,2.3c.72,0,1.43,0,2.15,0,.15,0,.16,0,.16.16,0,.72,0,1.43,0,2.15h0c-.71,0-1.42,0-2.13,0-.18,0-.17,0-.17-.17,0-.71,0-1.42,0-2.13h0Z"/><path class="e" d="M48.87,4.61c0-.72,0-1.43,0-2.15,0-.16,0-.16.16-.16.72,0,1.43,0,2.15,0h0c0,.71,0,1.42,0,2.13,0,.18.01.17-.17.17-.71,0-1.42,0-2.13,0,0,0,0,0,0,0Z"/><path class="e" d="M46.56,4.61c.77,0,1.54,0,2.3,0h0c0,.72,0,1.44,0,2.16,0,.14,0,.14-.14.14-.66,0-1.32,0-1.99,0-.19,0-.17.01-.17-.17,0-.71,0-1.42,0-2.13h0Z"/><path class="e" d="M37.35,16.12c-.72,0-1.43,0-2.15,0-.15,0-.16,0-.16-.16,0-.72,0-1.43,0-2.15h0c.71,0,1.42,0,2.13,0,.19,0,.17,0,.17.17,0,.71,0,1.42,0,2.13h0Z"/><path class="e" d="M39.65,18.43c-.72,0-1.43,0-2.15,0-.16,0-.16,0-.16-.16,0-.72,0-1.43,0-2.15h0c.71,0,1.42,0,2.13,0,.19,0,.17-.01.17.17,0,.71,0,1.42,0,2.13h0Z"/><path class="e" d="M41.96,20.73c-.72,0-1.43,0-2.15,0-.15,0-.16,0-.16-.16,0-.72,0-1.43,0-2.15h0c.71,0,1.42,0,2.13,0,.19,0,.17,0,.17.17,0,.71,0,1.42,0,2.13h0Z"/><path class="e" d="M55.78,18.43c0,.72,0,1.43,0,2.15,0,.16,0,.16-.16.16-.72,0-1.43,0-2.15,0h0c0-.71,0-1.42,0-2.13,0-.18-.01-.17.17-.17.71,0,1.42,0,2.13,0h0Z"/><path class="e" d="M44.26,23.03c-.72,0-1.43,0-2.15,0-.16,0-.16,0-.16-.16,0-.72,0-1.43,0-2.15h0c.71,0,1.42,0,2.13,0,.19,0,.17-.01.17.17,0,.71,0,1.42,0,2.13h0Z"/><path class="e" d="M53.47,20.73c0,.72,0,1.43,0,2.15,0,.15,0,.16-.16.16-.72,0-1.43,0-2.15,0,0,0,0,0,0,0,0-.71,0-1.42,0-2.13,0-.18-.02-.17.17-.17.71,0,1.42,0,2.13,0h0Z"/><path class="e" d="M46.56,25.34c-.72,0-1.43,0-2.15,0-.15,0-.16,0-.16-.16,0-.72,0-1.43,0-2.15,0,0,0,0,0,0,.71,0,1.42,0,2.13,0,.19,0,.17,0,.17.17,0,.71,0,1.42,0,2.13,0,0,0,0,0,0Z"/><path class="e" d="M51.17,23.03c0,.72,0,1.43,0,2.15,0,.16,0,.16-.16.16-.72,0-1.43,0-2.15,0h0c0-.71,0-1.42,0-2.13,0-.18-.01-.17.17-.17.71,0,1.42,0,2.13,0h0Z"/><path class="e" d="M48.86,25.34c0,.71,0,1.42,0,2.12,0,.21-.01.18-.16.18-.66,0-1.32,0-1.98,0-.15,0-.16.03-.16-.18,0-.71,0-1.42,0-2.12h0c.77,0,1.53,0,2.3,0h0Z"/><path class="c" d="M48.86,25.34c-.77,0-1.53,0-2.3,0,0-.71,0-1.42,0-2.13,0-.18.01-.17-.17-.17-.71,0-1.42,0-2.13,0,0-.71,0-1.42,0-2.13,0-.19.02-.17-.17-.17-.71,0-1.42,0-2.13,0,0-.71,0-1.42,0-2.13,0-.18.01-.17-.17-.17-.71,0-1.42,0-2.13,0,0-.71,0-1.42,0-2.13,0-.19.02-.17-.17-.17-.71,0-1.42,0-2.13,0,0-.71,0-1.42,0-2.13,0-.18.01-.17-.17-.17-.71,0-1.42,0-2.13,0,0-3.07,0-6.14,0-9.21.71,0,1.42,0,2.13,0,.19,0,.17,0,.17-.17,0-.71,0-1.42,0-2.13h6.91c0,.71,0,1.42,0,2.13,0,.18-.01.17.17.17.71,0,1.42,0,2.13,0,0,.71,0,1.42,0,2.13,0,.18-.02.17.17.17.66,0,1.32,0,1.99,0,.14,0,.14,0,.14-.14,0-.72,0-1.44,0-2.16.71,0,1.42,0,2.13,0,.19,0,.17,0,.17-.17,0-.71,0-1.42,0-2.13h6.91c0,.71,0,1.42,0,2.13,0,.18-.01.17.17.17.71,0,1.42,0,2.13,0,0,3.07,0,6.14,0,9.21-.71,0-1.42,0-2.13,0-.18,0-.17,0-.17.17,0,.71,0,1.42,0,2.13-.71,0-1.42,0-2.13,0-.19,0-.17-.01-.17.17,0,.71,0,1.42,0,2.13-.71,0-1.42,0-2.13,0-.18,0-.17,0-.17.17,0,.71,0,1.42,0,2.13-.71,0-1.42,0-2.13,0-.19,0-.17-.01-.17.17,0,.71,0,1.42,0,2.13-.71,0-1.42,0-2.13,0-.18,0-.17,0-.17.17,0,.71,0,1.42,0,2.13ZM35.16,9.2c0,.81,0,1.61,0,2.42,0,.38,0,.77,0,1.15,0,.11,0,.11.14.08.04-.01.08,0,.09.04,0,.04.02.1-.04.12-.02.01-.06,0-.09,0-.1-.01-.1.05-.11.12,0,.12.07.11.15.11.06,0,.09.02.08.08,0,.05.03.12-.05.15-.04.01-.11-.02-.12.05-.01.09.07.06.12.07.03,0,.04.04.05.06.05.06.05.06.11,0,.08-.08.17-.1.22-.01.04.07.08.07.13.07.26,0,.52,0,.78,0,.07,0,.12.01.15-.09.01-.05.13-.05.14,0,.03.11.11.09.18.09.13,0,.27,0,.4,0,.06,0,.09.04.05.09-.03.05-.03.09-.01.15.05.15.06.31-.01.47-.02.05-.03.1,0,.13.04.05.04.1.04.16,0,.28,0,.56,0,.83,0,.04.02.09-.02.1-.16.05-.07.17-.09.26-.01.07.01.11.09.1.07,0,.13,0,.2,0,.6,0,1.21,0,1.81,0,.22,0,.19-.02.19.2,0,.39,0,.79,0,1.18,0,.1.02.15.13.07.05-.04.09-.02.1.04,0,.04.01.1-.05.11-.02,0-.04,0-.06,0-.08,0-.12.02-.12.11,0,.11.04.13.13.12.07,0,.1.02.1.1,0,.09-.01.15-.12.14-.03,0-.05.02-.05.06,0,.04.02.06.05.05.08-.01.1.06.14.1.1.08.07-.11.16-.09.05,0,.13,0,.13.01.06.15.19.1.29.1.21,0,.42-.02.63,0,.13.02.13-.11.22-.12.11-.01.12.15.25.12.12-.03.25,0,.37,0,.04,0,.08,0,.1.03.02.04,0,.07-.03.1-.09.07-.08.12,0,.21.08.09.07.11-.03.24-.02.02-.04.06-.03.07.08.13,0,.26,0,.4,0,.36,0,.73,0,1.09,0,.16-.02.16.18.16.65,0,1.31,0,1.96,0,.18,0,.17,0,.17.17,0,.6,0,1.19,0,1.79,0,.05-.03.14.03.16.1.04.18.11.26.18.02.02.04-.02.06-.04.09-.09.17-.11.22-.03.04.06.07.07.13.07.07,0,.13,0,.2,0,.47,0,.94,0,1.41,0,.04,0,.08,0,.1.03.02.04,0,.07-.03.1-.09.07-.08.12,0,.21.08.09.07.11-.04.24-.02.02-.04.06-.03.07.08.13,0,.26,0,.4,0,.36,0,.73,0,1.09,0,.16-.02.16.18.16.53,0,1.06,0,1.58,0,.09,0,.21.03.28-.02.08-.05-.01-.17,0-.25.01-.07.03-.14.03-.22,0-.36-.01-.73,0-1.09,0-.11-.09-.21-.04-.32.07-.12-.04-.2-.07-.3-.02-.08,0-.1.07-.11.11,0,.21,0,.32,0,.11,0,.22.02.32,0,.1-.03.19,0,.28,0,.34,0,.67,0,1.01,0,.08,0,.17.03.2-.09,0-.03.07-.02.09.02.02.03,0,.08.07.07.07,0,.05-.07.05-.11,0-.07,0-.13,0-.2,0-.61,0-1.23,0-1.84,0-.14,0-.14.14-.14.24,0,.48,0,.72,0,.44,0,.88,0,1.32,0,.11,0,.11-.05.13-.13.01-.07-.09-.1-.03-.17.05-.06.02-.15.02-.22,0-.33,0-.65,0-.98,0-.12.02-.25-.06-.36.11-.13-.01-.24-.05-.35-.02-.06,0-.09.06-.09.07,0,.13,0,.2,0,.59,0,1.17,0,1.76,0,.05,0,.12.03.15-.04.06-.13.09-.09.13.01.01.03.05.03.08.02.01,0,.03-.03.03-.04,0-.07,0-.13,0-.2,0-.53,0-1.06,0-1.58,0-.15-.03-.3.02-.45.15,0,.3-.01.46-.01.56,0,1.11,0,1.67,0,.05,0,.1.02.14-.02.04-.04.03-.35-.02-.37-.08-.03-.07-.07-.07-.13,0-.25,0-.5,0-.75,0-.04,0-.07.03-.11.11-.16.11-.16,0-.37-.04-.07-.03-.14.02-.21.1-.13.1-.13,0-.24-.02-.02-.03-.05-.02-.08,0-.03.04-.04.07-.04.07,0,.13,0,.2,0,.58,0,1.15,0,1.73,0,.08,0,.17.03.2-.09.01-.04.08-.03.1.04,0,.03.02.05.06.05.06,0,.06-.04.06-.08,0-.03,0-.06,0-.09,0-2.73,0-5.45,0-8.18,0-.13-.01-.21-.17-.18-.07.01-.07-.05-.07-.1,0-.04.02-.07.07-.07.04,0,.08,0,.11,0,.05,0,.05-.05.05-.09,0-.03-.01-.07-.03-.07-.05-.01-.11,0-.17-.02-.05-.01-.02-.09-.08-.1-.09-.01-.05.1-.11.11-.06,0-.16.04-.18-.03-.03-.12-.12-.08-.18-.08-.44,0-.88,0-1.32,0-.1,0-.19,0-.29,0-.03,0-.05-.02-.05-.05,0-.02,0-.04.02-.05.09-.11.09-.11,0-.26-.04-.07-.07-.15.03-.22.07-.06.1-.29.04-.32-.14-.06-.08-.15-.09-.24,0-.2,0-.4,0-.6,0-.05,0-.13.02-.13.12-.03.1-.12.1-.2,0-.27.03-.23-.23-.23-2.07,0-4.15,0-6.22,0-.04,0-.08,0-.12,0-.08,0-.12.01-.12.11,0,.5,0,1,0,1.5,0,.04-.01.09.04.12.13.07.09.17.02.25-.08.1-.11.17.03.24.03.01.02.08-.02.09-.05.01-.11,0-.17,0-.48,0-.96,0-1.44,0-.07,0-.16-.04-.21.08-.02.06-.17.06-.2,0-.08-.18-.1-.06-.15.01-.03.03-.07.02-.09-.02-.02-.03-.01-.08-.07-.07-.07,0-.05.07-.05.11,0,.07,0,.13,0,.2,0,.61,0,1.23,0,1.84,0,.14,0,.14-.14.14-.41,0-.83,0-1.24,0-.31,0-.61,0-.92,0-.23,0-.23,0-.24-.22,0-.05,0-.1,0-.14,0-.44,0-.88,0-1.32,0-.09,0-.18-.13-.16-.07.01-.11-.02-.1-.09,0-.06.03-.08.09-.08.03,0,.06,0,.09,0,.03,0,.05-.02.05-.05,0-.04-.02-.05-.05-.06-.09,0-.2.02-.19-.14,0-.04-.06-.04-.11,0-.1.1-.14.11-.23.02-.04-.05-.07-.06-.11-.05-.31.03-.63-.06-.93.05-.05.02-.12.02-.16-.02-.04-.04-.09-.05-.13-.03-.14.07-.26,0-.4,0-.1,0-.1,0-.03-.12.01-.02.03-.03.01-.04-.12-.08.11-.19-.03-.27,0-.1.06-.19.05-.3-.01-.36-.01-.73,0-1.09,0-.1-.06-.2-.01-.31.05-.14,0-.17-.16-.17-.03,0-.06,0-.09,0-2.06,0-4.13,0-6.19,0-.05,0-.1,0-.14,0-.08,0-.1.03-.09.1,0,.17,0,.35,0,.52,0,.18.02.37,0,.55-.02.16.11.32,0,.48,0,.01.01.07.03.07.15.02.1.17.07.2-.1.11-.12.2,0,.3.03.02,0,.08-.04.08-.06,0-.11,0-.17,0-.47,0-.94,0-1.41,0-.09,0-.18-.04-.23.09-.02.05-.16.05-.19-.02-.06-.12-.09-.11-.13,0-.01.04-.06.03-.1.03-.04,0-.06.02-.06.05,0,.04.02.07.06.07.13-.01.1.08.1.15,0,.09-.06.08-.12.08-.09,0-.11.03-.12.11,0,.12.05.13.14.12.08,0,.1.03.09.1-.01.09-.06.08-.12.04-.09-.06-.12-.01-.11.07,0,.07,0,.13,0,.2,0,1.12,0,2.25,0,3.37Z"/><path class="b" d="M35.16,9.2c0-1.12,0-2.25,0-3.37,0-.07,0-.13,0-.2,0-.09.02-.14.11-.07.06.04.1.05.12-.04,0-.07-.02-.11-.09-.1-.09.01-.15,0-.14-.12,0-.09.03-.12.12-.11.06,0,.12.01.12-.08,0-.07.03-.16-.1-.15-.05,0-.07-.02-.06-.07,0-.03.02-.05.06-.05.04,0,.09,0,.1-.03.04-.12.07-.13.13,0,.04.07.17.07.19.02.05-.13.15-.09.23-.09.47,0,.94,0,1.41,0,.06,0,.12,0,.17,0,.05,0,.07-.06.04-.08-.13-.11-.1-.19,0-.3.03-.03.07-.17-.07-.2-.01,0-.04-.06-.03-.07.1-.16-.03-.32,0-.48.02-.18,0-.36,0-.55,0-.17,0-.35,0-.52,0-.07.01-.11.09-.1.05,0,.1,0,.14,0,2.06,0,4.13,0,6.19,0,.03,0,.06,0,.09,0,.17,0,.21.03.16.17-.05.12.02.21.01.31-.01.36-.01.73,0,1.09,0,.11-.05.2-.05.3.14.08-.09.19.03.27.02.01,0,.02-.01.04-.07.11-.07.11.03.12.13,0,.26.07.4,0,.04-.02.09-.01.13.03.05.05.12.04.16.02.31-.12.62-.03.93-.05.04,0,.08,0,.11.05.08.1.12.09.23-.02.04-.04.11-.04.11,0-.01.16.09.13.19.14.03,0,.05.02.05.06,0,.04-.02.05-.05.05-.03,0-.06,0-.09,0-.06,0-.09.02-.09.08,0,.08.03.11.1.09.14-.03.13.06.13.16,0,.44,0,.88,0,1.32,0,.05,0,.1,0,.14,0,.22,0,.22.24.22.31,0,.61,0,.92,0,.41,0,.83,0,1.24,0,.14,0,.14,0,.14-.14,0-.61,0-1.23,0-1.84,0-.07,0-.13,0-.2,0-.04-.02-.1.05-.11.06,0,.05.04.07.07.02.04.07.05.09.02.05-.07.07-.19.15-.01.03.06.18.06.2,0,.05-.13.13-.08.21-.08.48,0,.96,0,1.44,0,.06,0,.12,0,.17,0,.04,0,.06-.07.02-.09-.15-.06-.12-.14-.03-.24.07-.08.11-.18-.02-.25-.06-.03-.04-.08-.04-.12,0-.5,0-1,0-1.5,0-.1.04-.11.12-.11.04,0,.08,0,.12,0,2.07,0,4.15,0,6.22,0,.26,0,.22-.04.23.23,0,.08.02.17-.1.2-.02,0-.02.09-.02.13,0,.2,0,.4,0,.6,0,.08-.05.18.09.24.06.03.04.26-.04.32-.09.07-.06.15-.03.22.08.15.09.14,0,.26-.01.01-.02.03-.02.05,0,.03.02.05.05.05.1,0,.19,0,.29,0,.44,0,.88,0,1.32,0,.06,0,.15-.04.18.08.02.07.12.03.18.03.05,0,.02-.12.11-.11.06,0,.03.09.08.1.05.01.11,0,.17.02.01,0,.02.05.03.07,0,.04,0,.08-.05.09-.04,0-.08,0-.11,0-.05,0-.06.03-.07.07,0,.05,0,.11.07.1.16-.03.17.05.17.18,0,2.73,0,5.45,0,8.18,0,.03,0,.06,0,.09,0,.04,0,.08-.06.08-.04,0-.05-.02-.06-.05-.01-.07-.08-.08-.1-.04-.04.12-.13.09-.2.09-.58,0-1.15,0-1.73,0-.07,0-.13,0-.2,0-.03,0-.06,0-.07.04,0,.03,0,.05.02.08.1.11.1.11,0,.24-.05.07-.05.14-.02.21.12.21.12.21,0,.37-.02.04-.03.07-.03.11,0,.25,0,.5,0,.75,0,.06,0,.1.07.13.05.02.06.34.02.37-.04.04-.09.02-.14.02-.56,0-1.11,0-1.67,0-.15,0-.3,0-.46.01-.05.15-.02.3-.02.45,0,.53,0,1.06,0,1.58,0,.07,0,.13,0,.2,0,.02-.02.04-.03.04-.03,0-.06.01-.08-.02-.04-.1-.07-.15-.13-.01-.03.07-.1.04-.15.04-.59,0-1.17,0-1.76,0-.07,0-.13,0-.2,0-.06,0-.08.03-.06.09.04.11.16.22.05.35.07.11.06.23.06.36,0,.33,0,.65,0,.98,0,.07.03.16-.02.22-.07.08.04.11.03.17-.02.09-.02.14-.13.13-.44,0-.88,0-1.32,0-.24,0-.48,0-.72,0-.13,0-.14,0-.14.14,0,.61,0,1.23,0,1.84,0,.07,0,.13,0,.2,0,.04.02.1-.05.11-.06,0-.05-.04-.07-.07-.02-.04-.08-.05-.09-.02-.03.12-.12.09-.2.09-.34,0-.67,0-1.01,0-.09,0-.18-.03-.28,0-.1.03-.21,0-.32,0-.11,0-.21,0-.32,0-.07,0-.09.02-.07.11.02.1.13.18.07.3-.06.11.04.2.04.32-.02.36,0,.73,0,1.09,0,.07-.02.15-.03.22-.01.07.08.19,0,.25-.07.05-.18.02-.28.02-.53,0-1.06,0-1.58,0-.2,0-.18,0-.18-.16,0-.36,0-.73,0-1.09,0-.13.09-.26,0-.4,0-.01.02-.05.03-.07.1-.14.12-.15.04-.24-.07-.08-.09-.14,0-.21.03-.02.05-.06.03-.1-.02-.04-.07-.03-.1-.03-.47,0-.94,0-1.41,0-.07,0-.13,0-.2,0-.06,0-.09,0-.13-.07-.05-.08-.13-.06-.22.03-.02.02-.04.06-.06.04-.08-.07-.15-.14-.26-.18-.06-.02-.03-.1-.03-.16,0-.59,0-1.19,0-1.79,0-.18.01-.17-.17-.17-.65,0-1.31,0-1.96,0-.2,0-.18,0-.18-.16,0-.36,0-.73,0-1.09,0-.13.09-.26,0-.4,0-.01.02-.05.03-.07.1-.13.12-.15.03-.24-.07-.08-.09-.14,0-.21.03-.02.05-.06.03-.1-.02-.04-.07-.03-.1-.03-.12,0-.26-.02-.37,0-.13.03-.14-.13-.25-.12-.09.01-.09.14-.22.12-.21-.03-.42,0-.63,0-.1,0-.23.05-.29-.1,0-.02-.09,0-.13-.01-.09-.02-.05.18-.16.09-.05-.04-.06-.11-.14-.1-.03,0-.05-.02-.05-.05,0-.04.02-.06.05-.06.11.02.13-.04.12-.14,0-.07-.03-.11-.1-.1-.09.01-.14-.01-.13-.12,0-.09.04-.12.12-.11.02,0,.04,0,.06,0,.07-.01.06-.07.05-.11,0-.06-.05-.08-.1-.04-.11.08-.13.03-.13-.07,0-.39,0-.79,0-1.18,0-.22.03-.2-.19-.2-.6,0-1.21,0-1.81,0-.07,0-.13,0-.2,0-.08,0-.1-.04-.09-.1.02-.09-.07-.21.09-.26.04-.01.02-.07.02-.1,0-.28,0-.56,0-.83,0-.06,0-.11-.04-.16-.03-.04-.02-.09,0-.13.08-.15.06-.31.01-.47-.02-.06-.02-.1.01-.15.03-.05,0-.09-.05-.09-.13,0-.27,0-.4,0-.07,0-.15.03-.18-.09-.01-.05-.13-.05-.14,0-.03.1-.08.09-.15.09-.26,0-.52,0-.78,0-.05,0-.09,0-.13-.07-.05-.08-.14-.06-.22.01-.06.05-.06.06-.11,0-.02-.02-.02-.05-.05-.06-.05-.01-.13.02-.12-.07,0-.07.08-.03.12-.05.08-.03.04-.09.05-.15,0-.06-.03-.08-.08-.08-.08,0-.16.01-.15-.11,0-.08,0-.13.11-.12.03,0,.06,0,.09,0,.05-.02.05-.08.04-.12,0-.04-.04-.05-.09-.04-.13.03-.14.03-.14-.08,0-.38,0-.77,0-1.15,0-.81,0-1.61,0-2.42ZM39.62,8.06h0c.34,0,.69,0,1.03,0,.14,0,.14,0,.15-.14,0-.24,0-.48,0-.72,0-.43,0-.86,0-1.29,0-.15,0-.15-.16-.15-.14,0-.29,0-.43,0-.53,0-1.05,0-1.58,0-.09,0-.13.02-.13.13,0,.68,0,1.36,0,2.04,0,.13,0,.14.15.14.33,0,.65,0,.98,0ZM40.34,15.72s-.02-.04-.04-.05c-.03,0-.06,0-.06.04,0,.04,0,.07.06.07.03,0,.05-.02.05-.06Z"/><path class="d" d="M39.62,8.06c-.33,0-.65,0-.98,0-.14,0-.15,0-.15-.14,0-.68,0-1.36,0-2.04,0-.11.04-.13.13-.13.53,0,1.05,0,1.58,0,.14,0,.29,0,.43,0,.16,0,.16,0,.16.15,0,.43,0,.86,0,1.29,0,.24,0,.48,0,.72,0,.13,0,.14-.15.14-.34,0-.69,0-1.03,0h0Z"/><path class="c" d="M40.34,15.72s-.02.06-.05.06c-.05,0-.06-.03-.06-.07,0-.03.03-.04.06-.04.03,0,.05.02.04.05Z"/><path class="e" d="M93.47,4.61c.72,0,1.44,0,2.16,0,.14,0,.14,0,.15.14,0,.05,0,.1,0,.14v8.65s0,.1,0,.14c0,.13,0,.14-.15.14-.72,0-1.44,0-2.16,0h0c0-3.07,0-6.14,0-9.21h0Z"/><path class="e" d="M91.17,2.3c.72,0,1.43,0,2.15,0,.15,0,.16,0,.16.16,0,.72,0,1.43,0,2.15h0c-.71,0-1.42,0-2.13,0-.18,0-.17,0-.17-.17,0-.71,0-1.42,0-2.13h0Z"/><path class="e" d="M93.47,13.82c0,.72,0,1.43,0,2.15,0,.16,0,.16-.16.16-.72,0-1.43,0-2.15,0,0,0,0,0,0,0,0-.71,0-1.42,0-2.13,0-.18-.01-.17.17-.17.71,0,1.42,0,2.13,0h0Z"/><path class="e" d="M91.17,16.12c0,.72,0,1.43,0,2.15,0,.15,0,.16-.16.16-.72,0-1.43,0-2.15,0h0c0-.71,0-1.42,0-2.13,0-.18-.02-.17.17-.17.71,0,1.42,0,2.13,0h0Z"/><path class="e" d="M68.13,13.82c-.72,0-1.44,0-2.16,0-.14,0-.14,0-.15-.14,0-.05,0-.1,0-.14,0-2.88,0-5.77,0-8.65,0-.05,0-.1,0-.14,0-.13,0-.14.15-.14.72,0,1.44,0,2.16,0h0c0,3.07,0,6.14,0,9.21h0Z"/><path class="e" d="M70.44,2.3c0-.7,0-1.4,0-2.1,0-.22-.03-.21.19-.21.22,0,.44,0,.66,0,1.91,0,3.81,0,5.72,0,.07,0,.13,0,.2,0,.13,0,.13,0,.13.15,0,.72,0,1.44,0,2.16h0c-2.3,0-4.61,0-6.91,0h0Z"/><path class="e" d="M84.26,2.3c0-.7,0-1.4,0-2.1,0-.22-.03-.21.19-.21.22,0,.44,0,.66,0,1.91,0,3.81,0,5.72,0,.07,0,.13,0,.2,0,.13,0,.13,0,.13.15,0,.72,0,1.44,0,2.16h0c-2.3,0-4.61,0-6.91,0,0,0,0,0,0,0Z"/><path class="e" d="M68.13,4.61c0-.72,0-1.43,0-2.15,0-.16,0-.16.16-.16.72,0,1.43,0,2.15,0h0c0,.71,0,1.42,0,2.13,0,.18.01.17-.17.17-.71,0-1.42,0-2.13,0h0Z"/><path class="e" d="M77.35,2.3c.72,0,1.43,0,2.15,0,.15,0,.16,0,.16.16,0,.72,0,1.43,0,2.15h0c-.71,0-1.42,0-2.13,0-.18,0-.17,0-.17-.17,0-.71,0-1.42,0-2.13h0Z"/><path class="e" d="M81.95,4.61c0-.72,0-1.43,0-2.15,0-.16,0-.16.16-.16.72,0,1.43,0,2.15,0h0c0,.71,0,1.42,0,2.13,0,.18.01.17-.17.17-.71,0-1.42,0-2.13,0,0,0,0,0,0,0Z"/><path class="e" d="M79.65,4.61c.77,0,1.54,0,2.3,0h0c0,.72,0,1.44,0,2.16,0,.14,0,.14-.14.14-.66,0-1.32,0-1.99,0-.19,0-.17.01-.17-.17,0-.71,0-1.42,0-2.13h0Z"/><path class="e" d="M70.44,16.12c-.72,0-1.43,0-2.15,0-.15,0-.16,0-.16-.16,0-.72,0-1.43,0-2.15h0c.71,0,1.42,0,2.13,0,.19,0,.17,0,.17.17,0,.71,0,1.42,0,2.13h0Z"/><path class="e" d="M72.74,18.43c-.72,0-1.43,0-2.15,0-.16,0-.16,0-.16-.16,0-.72,0-1.43,0-2.15h0c.71,0,1.42,0,2.13,0,.19,0,.17-.01.17.17,0,.71,0,1.42,0,2.13h0Z"/><path class="e" d="M75.04,20.73c-.72,0-1.43,0-2.15,0-.15,0-.16,0-.16-.16,0-.72,0-1.43,0-2.15h0c.71,0,1.42,0,2.13,0,.19,0,.17,0,.17.17,0,.71,0,1.42,0,2.13h0Z"/><path class="e" d="M88.86,18.43c0,.72,0,1.43,0,2.15,0,.16,0,.16-.16.16-.72,0-1.43,0-2.15,0h0c0-.71,0-1.42,0-2.13,0-.18-.01-.17.17-.17.71,0,1.42,0,2.13,0h0Z"/><path class="e" d="M77.35,23.03c-.72,0-1.43,0-2.15,0-.16,0-.16,0-.16-.16,0-.72,0-1.43,0-2.15h0c.71,0,1.42,0,2.13,0,.19,0,.17-.01.17.17,0,.71,0,1.42,0,2.13h0Z"/><path class="e" d="M86.56,20.73c0,.72,0,1.43,0,2.15,0,.15,0,.16-.16.16-.72,0-1.43,0-2.15,0,0,0,0,0,0,0,0-.71,0-1.42,0-2.13,0-.18-.02-.17.17-.17.71,0,1.42,0,2.13,0h0Z"/><path class="e" d="M79.65,25.34c-.72,0-1.43,0-2.15,0-.15,0-.16,0-.16-.16,0-.72,0-1.43,0-2.15,0,0,0,0,0,0,.71,0,1.42,0,2.13,0,.19,0,.17,0,.17.17,0,.71,0,1.42,0,2.13,0,0,0,0,0,0Z"/><path class="e" d="M84.26,23.03c0,.72,0,1.43,0,2.15,0,.16,0,.16-.16.16-.72,0-1.43,0-2.15,0h0c0-.71,0-1.42,0-2.13,0-.18-.01-.17.17-.17.71,0,1.42,0,2.13,0h0Z"/><path class="e" d="M81.95,25.34c0,.71,0,1.42,0,2.12,0,.21-.01.18-.16.18-.66,0-1.32,0-1.98,0-.15,0-.16.03-.16-.18,0-.71,0-1.42,0-2.12h0c.77,0,1.53,0,2.3,0h0Z"/><path class="c" d="M81.95,25.34c-.77,0-1.53,0-2.3,0,0-.71,0-1.42,0-2.13,0-.18.01-.17-.17-.17-.71,0-1.42,0-2.13,0,0-.71,0-1.42,0-2.13,0-.19.02-.17-.17-.17-.71,0-1.42,0-2.13,0,0-.71,0-1.42,0-2.13,0-.18.01-.17-.17-.17-.71,0-1.42,0-2.13,0,0-.71,0-1.42,0-2.13,0-.19.02-.17-.17-.17-.71,0-1.42,0-2.13,0,0-.71,0-1.42,0-2.13,0-.18.01-.17-.17-.17-.71,0-1.42,0-2.13,0,0-3.07,0-6.14,0-9.21.71,0,1.42,0,2.13,0,.19,0,.17,0,.17-.17,0-.71,0-1.42,0-2.13h6.91c0,.71,0,1.42,0,2.13,0,.18-.01.17.17.17.71,0,1.42,0,2.13,0,0,.71,0,1.42,0,2.13,0,.18-.02.17.17.17.66,0,1.32,0,1.99,0,.14,0,.14,0,.14-.14,0-.72,0-1.44,0-2.16.71,0,1.42,0,2.13,0,.19,0,.17,0,.17-.17,0-.71,0-1.42,0-2.13h6.91c0,.71,0,1.42,0,2.13,0,.18-.01.17.17.17.71,0,1.42,0,2.13,0,0,3.07,0,6.14,0,9.21-.71,0-1.42,0-2.13,0-.18,0-.17,0-.17.17,0,.71,0,1.42,0,2.13-.71,0-1.42,0-2.13,0-.19,0-.17-.01-.17.17,0,.71,0,1.42,0,2.13-.71,0-1.42,0-2.13,0-.18,0-.17,0-.17.17,0,.71,0,1.42,0,2.13-.71,0-1.42,0-2.13,0-.19,0-.17-.01-.17.17,0,.71,0,1.42,0,2.13-.71,0-1.42,0-2.13,0-.18,0-.17,0-.17.17,0,.71,0,1.42,0,2.13ZM68.25,9.2c0,.81,0,1.61,0,2.42,0,.38,0,.77,0,1.15,0,.11,0,.11.14.08.04-.01.08,0,.09.04,0,.04.02.1-.04.12-.02.01-.06,0-.09,0-.1-.01-.1.05-.11.12,0,.12.07.11.15.11.06,0,.09.02.08.08,0,.05.03.12-.05.15-.04.01-.11-.02-.12.05-.01.09.07.06.12.07.03,0,.04.04.05.06.05.06.05.06.11,0,.08-.08.17-.1.22-.01.04.07.08.07.13.07.26,0,.52,0,.78,0,.07,0,.12.01.15-.09.01-.05.13-.05.14,0,.03.11.11.09.18.09.13,0,.27,0,.4,0,.06,0,.09.04.05.09-.03.05-.03.09-.01.15.05.15.06.31-.01.47-.02.05-.03.1,0,.13.04.05.04.1.04.16,0,.28,0,.56,0,.83,0,.04.02.09-.02.1-.16.05-.07.17-.09.26-.01.07.01.11.09.1.07,0,.13,0,.2,0,.6,0,1.21,0,1.81,0,.22,0,.19-.02.19.2,0,.39,0,.79,0,1.18,0,.1.02.15.13.07.05-.04.09-.02.1.04,0,.04.01.1-.05.11-.02,0-.04,0-.06,0-.08,0-.12.02-.12.11,0,.11.04.13.13.12.07,0,.1.02.1.1,0,.09-.01.15-.12.14-.03,0-.05.02-.05.06,0,.04.02.06.05.05.08-.01.1.06.14.1.1.08.07-.11.16-.09.05,0,.13,0,.13.01.06.15.19.1.29.1.21,0,.42-.02.63,0,.13.02.13-.11.22-.12.11-.01.12.15.25.12.12-.03.25,0,.37,0,.04,0,.08,0,.1.03.02.04,0,.07-.03.1-.09.07-.08.12,0,.21.08.09.07.11-.03.24-.02.02-.04.06-.03.07.08.13,0,.26,0,.4,0,.36,0,.73,0,1.09,0,.16-.02.16.18.16.65,0,1.31,0,1.96,0,.18,0,.17,0,.17.17,0,.6,0,1.19,0,1.79,0,.05-.03.14.03.16.1.04.18.11.26.18.02.02.04-.02.06-.04.09-.09.17-.11.22-.03.04.06.07.07.13.07.07,0,.13,0,.2,0,.47,0,.94,0,1.41,0,.04,0,.08,0,.1.03.02.04,0,.07-.03.1-.09.07-.08.12,0,.21.08.09.07.11-.04.24-.02.02-.04.06-.03.07.08.13,0,.26,0,.4,0,.36,0,.73,0,1.09,0,.16-.02.16.18.16.53,0,1.06,0,1.58,0,.09,0,.21.03.28-.02.08-.05-.01-.17,0-.25.01-.07.03-.14.03-.22,0-.36-.01-.73,0-1.09,0-.11-.09-.21-.04-.32.07-.12-.04-.2-.07-.3-.02-.08,0-.1.07-.11.11,0,.21,0,.32,0,.11,0,.22.02.32,0,.1-.03.19,0,.28,0,.34,0,.67,0,1.01,0,.08,0,.17.03.2-.09,0-.03.07-.02.09.02.02.03,0,.08.07.07.07,0,.05-.07.05-.11,0-.07,0-.13,0-.2,0-.61,0-1.23,0-1.84,0-.14,0-.14.14-.14.24,0,.48,0,.72,0,.44,0,.88,0,1.32,0,.11,0,.11-.05.13-.13.01-.07-.09-.1-.03-.17.05-.06.02-.15.02-.22,0-.33,0-.65,0-.98,0-.12.02-.25-.06-.36.11-.13-.01-.24-.05-.35-.02-.06,0-.09.06-.09.07,0,.13,0,.2,0,.59,0,1.17,0,1.76,0,.05,0,.12.03.15-.04.06-.13.09-.09.13.01.01.03.05.03.08.02.01,0,.03-.03.03-.04,0-.07,0-.13,0-.2,0-.53,0-1.06,0-1.58,0-.15-.03-.3.02-.45.15,0,.3-.01.46-.01.56,0,1.11,0,1.67,0,.05,0,.1.02.14-.02.04-.04.03-.35-.02-.37-.08-.03-.07-.07-.07-.13,0-.25,0-.5,0-.75,0-.04,0-.07.03-.11.11-.16.11-.16,0-.37-.04-.07-.03-.14.02-.21.1-.13.1-.13,0-.24-.02-.02-.03-.05-.02-.08,0-.03.04-.04.07-.04.07,0,.13,0,.2,0,.58,0,1.15,0,1.73,0,.08,0,.17.03.2-.09.01-.04.08-.03.1.04,0,.03.02.05.06.05.06,0,.06-.04.06-.08,0-.03,0-.06,0-.09,0-2.73,0-5.45,0-8.18,0-.13-.01-.21-.17-.18-.07.01-.07-.05-.07-.1,0-.04.02-.07.07-.07.04,0,.08,0,.11,0,.05,0,.05-.05.05-.09,0-.03-.01-.07-.03-.07-.05-.01-.11,0-.17-.02-.05-.01-.02-.09-.08-.1-.09-.01-.05.1-.11.11-.06,0-.16.04-.18-.03-.03-.12-.12-.08-.18-.08-.44,0-.88,0-1.32,0-.1,0-.19,0-.29,0-.03,0-.05-.02-.05-.05,0-.02,0-.04.02-.05.09-.11.09-.11,0-.26-.04-.07-.07-.15.03-.22.07-.06.1-.29.04-.32-.14-.06-.08-.15-.09-.24,0-.2,0-.4,0-.6,0-.05,0-.13.02-.13.12-.03.1-.12.1-.2,0-.27.03-.23-.23-.23-2.07,0-4.15,0-6.22,0-.04,0-.08,0-.12,0-.08,0-.12.01-.12.11,0,.5,0,1,0,1.5,0,.04-.01.09.04.12.13.07.09.17.02.25-.08.1-.11.17.03.24.03.01.02.08-.02.09-.05.01-.11,0-.17,0-.48,0-.96,0-1.44,0-.07,0-.16-.04-.21.08-.02.06-.17.06-.2,0-.08-.18-.1-.06-.15.01-.03.03-.07.02-.09-.02-.02-.03-.01-.08-.07-.07-.07,0-.05.07-.05.11,0,.07,0,.13,0,.2,0,.61,0,1.23,0,1.84,0,.14,0,.14-.14.14-.41,0-.83,0-1.24,0-.31,0-.61,0-.92,0-.23,0-.23,0-.24-.22,0-.05,0-.1,0-.14,0-.44,0-.88,0-1.32,0-.09,0-.18-.13-.16-.07.01-.11-.02-.1-.09,0-.06.03-.08.09-.08.03,0,.06,0,.09,0,.03,0,.05-.02.05-.05,0-.04-.02-.05-.05-.06-.09,0-.2.02-.19-.14,0-.04-.06-.04-.11,0-.1.1-.14.11-.23.02-.04-.05-.07-.06-.11-.05-.31.03-.63-.06-.93.05-.05.02-.12.02-.16-.02-.04-.04-.09-.05-.13-.03-.14.07-.26,0-.4,0-.1,0-.1,0-.03-.12.01-.02.03-.03.01-.04-.12-.08.11-.19-.03-.27,0-.1.06-.19.05-.3-.01-.36-.01-.73,0-1.09,0-.1-.06-.2-.01-.31.05-.14,0-.17-.16-.17-.03,0-.06,0-.09,0-2.06,0-4.13,0-6.19,0-.05,0-.1,0-.14,0-.08,0-.1.03-.09.1,0,.17,0,.35,0,.52,0,.18.02.37,0,.55-.02.16.11.32,0,.48,0,.01.01.07.03.07.15.02.1.17.07.2-.1.11-.12.2,0,.3.03.02,0,.08-.04.08-.06,0-.11,0-.17,0-.47,0-.94,0-1.41,0-.09,0-.18-.04-.23.09-.02.05-.16.05-.19-.02-.06-.12-.09-.11-.13,0-.01.04-.06.03-.1.03-.04,0-.06.02-.06.05,0,.04.02.07.06.07.13-.01.1.08.1.15,0,.09-.06.08-.12.08-.09,0-.11.03-.12.11,0,.12.05.13.14.12.08,0,.1.03.09.1-.01.09-.06.08-.12.04-.09-.06-.12-.01-.11.07,0,.07,0,.13,0,.2,0,1.12,0,2.25,0,3.37Z"/><path class="b" d="M68.25,9.2c0-1.12,0-2.25,0-3.37,0-.07,0-.13,0-.2,0-.09.02-.14.11-.07.06.04.1.05.12-.04,0-.07-.02-.11-.09-.1-.09.01-.15,0-.14-.12,0-.09.03-.12.12-.11.06,0,.12.01.12-.08,0-.07.03-.16-.1-.15-.05,0-.07-.02-.06-.07,0-.03.02-.05.06-.05.04,0,.09,0,.1-.03.04-.12.07-.13.13,0,.04.07.17.07.19.02.05-.13.15-.09.23-.09.47,0,.94,0,1.41,0,.06,0,.12,0,.17,0,.05,0,.07-.06.04-.08-.13-.11-.1-.19,0-.3.03-.03.07-.17-.07-.2-.01,0-.04-.06-.03-.07.1-.16-.03-.32,0-.48.02-.18,0-.36,0-.55,0-.17,0-.35,0-.52,0-.07.01-.11.09-.1.05,0,.1,0,.14,0,2.06,0,4.13,0,6.19,0,.03,0,.06,0,.09,0,.17,0,.21.03.16.17-.05.12.02.21.01.31-.01.36-.01.73,0,1.09,0,.11-.05.2-.05.3.14.08-.09.19.03.27.02.01,0,.02-.01.04-.07.11-.07.11.03.12.13,0,.26.07.4,0,.04-.02.09-.01.13.03.05.05.12.04.16.02.31-.12.62-.03.93-.05.04,0,.08,0,.11.05.08.1.12.09.23-.02.04-.04.11-.04.11,0-.01.16.09.13.19.14.03,0,.05.02.05.06,0,.04-.02.05-.05.05-.03,0-.06,0-.09,0-.06,0-.09.02-.09.08,0,.08.03.11.1.09.14-.03.13.06.13.16,0,.44,0,.88,0,1.32,0,.05,0,.1,0,.14,0,.22,0,.22.24.22.31,0,.61,0,.92,0,.41,0,.83,0,1.24,0,.14,0,.14,0,.14-.14,0-.61,0-1.23,0-1.84,0-.07,0-.13,0-.2,0-.04-.02-.1.05-.11.06,0,.05.04.07.07.02.04.07.05.09.02.05-.07.07-.19.15-.01.03.06.18.06.2,0,.05-.13.13-.08.21-.08.48,0,.96,0,1.44,0,.06,0,.12,0,.17,0,.04,0,.06-.07.02-.09-.15-.06-.12-.14-.03-.24.07-.08.11-.18-.02-.25-.06-.03-.04-.08-.04-.12,0-.5,0-1,0-1.5,0-.1.04-.11.12-.11.04,0,.08,0,.12,0,2.07,0,4.15,0,6.22,0,.26,0,.22-.04.23.23,0,.08.02.17-.1.2-.02,0-.02.09-.02.13,0,.2,0,.4,0,.6,0,.08-.05.18.09.24.06.03.04.26-.04.32-.09.07-.06.15-.03.22.08.15.09.14,0,.26-.01.01-.02.03-.02.05,0,.03.02.05.05.05.1,0,.19,0,.29,0,.44,0,.88,0,1.32,0,.06,0,.15-.04.18.08.02.07.12.03.18.03.05,0,.02-.12.11-.11.06,0,.03.09.08.1.05.01.11,0,.17.02.01,0,.02.05.03.07,0,.04,0,.08-.05.09-.04,0-.08,0-.11,0-.05,0-.06.03-.07.07,0,.05,0,.11.07.1.16-.03.17.05.17.18,0,2.73,0,5.45,0,8.18,0,.03,0,.06,0,.09,0,.04,0,.08-.06.08-.04,0-.05-.02-.06-.05-.01-.07-.08-.08-.1-.04-.04.12-.13.09-.2.09-.58,0-1.15,0-1.73,0-.07,0-.13,0-.2,0-.03,0-.06,0-.07.04,0,.03,0,.05.02.08.1.11.1.11,0,.24-.05.07-.05.14-.02.21.12.21.12.21,0,.37-.02.04-.03.07-.03.11,0,.25,0,.5,0,.75,0,.06,0,.1.07.13.05.02.06.34.02.37-.04.04-.09.02-.14.02-.56,0-1.11,0-1.67,0-.15,0-.3,0-.46.01-.05.15-.02.3-.02.45,0,.53,0,1.06,0,1.58,0,.07,0,.13,0,.2,0,.02-.02.04-.03.04-.03,0-.06.01-.08-.02-.04-.1-.07-.15-.13-.01-.03.07-.1.04-.15.04-.59,0-1.17,0-1.76,0-.07,0-.13,0-.2,0-.06,0-.08.03-.06.09.04.11.16.22.05.35.07.11.06.23.06.36,0,.33,0,.65,0,.98,0,.07.03.16-.02.22-.07.08.04.11.03.17-.02.09-.02.14-.13.13-.44,0-.88,0-1.32,0-.24,0-.48,0-.72,0-.13,0-.14,0-.14.14,0,.61,0,1.23,0,1.84,0,.07,0,.13,0,.2,0,.04.02.1-.05.11-.06,0-.05-.04-.07-.07-.02-.04-.08-.05-.09-.02-.03.12-.12.09-.2.09-.34,0-.67,0-1.01,0-.09,0-.18-.03-.28,0-.1.03-.21,0-.32,0-.11,0-.21,0-.32,0-.07,0-.09.02-.07.11.02.1.13.18.07.3-.06.11.04.2.04.32-.02.36,0,.73,0,1.09,0,.07-.02.15-.03.22-.01.07.08.19,0,.25-.07.05-.18.02-.28.02-.53,0-1.06,0-1.58,0-.2,0-.18,0-.18-.16,0-.36,0-.73,0-1.09,0-.13.09-.26,0-.4,0-.01.02-.05.03-.07.1-.14.12-.15.04-.24-.07-.08-.09-.14,0-.21.03-.02.05-.06.03-.1-.02-.04-.07-.03-.1-.03-.47,0-.94,0-1.41,0-.07,0-.13,0-.2,0-.06,0-.09,0-.13-.07-.05-.08-.13-.06-.22.03-.02.02-.04.06-.06.04-.08-.07-.15-.14-.26-.18-.06-.02-.03-.1-.03-.16,0-.59,0-1.19,0-1.79,0-.18.01-.17-.17-.17-.65,0-1.31,0-1.96,0-.2,0-.18,0-.18-.16,0-.36,0-.73,0-1.09,0-.13.09-.26,0-.4,0-.01.02-.05.03-.07.1-.13.12-.15.03-.24-.07-.08-.09-.14,0-.21.03-.02.05-.06.03-.1-.02-.04-.07-.03-.1-.03-.12,0-.26-.02-.37,0-.13.03-.14-.13-.25-.12-.09.01-.09.14-.22.12-.21-.03-.42,0-.63,0-.1,0-.23.05-.29-.1,0-.02-.09,0-.13-.01-.09-.02-.05.18-.16.09-.05-.04-.06-.11-.14-.1-.03,0-.05-.02-.05-.05,0-.04.02-.06.05-.06.11.02.13-.04.12-.14,0-.07-.03-.11-.1-.1-.09.01-.14-.01-.13-.12,0-.09.04-.12.12-.11.02,0,.04,0,.06,0,.07-.01.06-.07.05-.11,0-.06-.05-.08-.1-.04-.11.08-.13.03-.13-.07,0-.39,0-.79,0-1.18,0-.22.03-.2-.19-.2-.6,0-1.21,0-1.81,0-.07,0-.13,0-.2,0-.08,0-.1-.04-.09-.1.02-.09-.07-.21.09-.26.04-.01.02-.07.02-.1,0-.28,0-.56,0-.83,0-.06,0-.11-.04-.16-.03-.04-.02-.09,0-.13.08-.15.06-.31.01-.47-.02-.06-.02-.1.01-.15.03-.05,0-.09-.05-.09-.13,0-.27,0-.4,0-.07,0-.15.03-.18-.09-.01-.05-.13-.05-.14,0-.03.1-.08.09-.15.09-.26,0-.52,0-.78,0-.05,0-.09,0-.13-.07-.05-.08-.14-.06-.22.01-.06.05-.06.06-.11,0-.02-.02-.02-.05-.05-.06-.05-.01-.13.02-.12-.07,0-.07.08-.03.12-.05.08-.03.04-.09.05-.15,0-.06-.03-.08-.08-.08-.08,0-.16.01-.15-.11,0-.08,0-.13.11-.12.03,0,.06,0,.09,0,.05-.02.05-.08.04-.12,0-.04-.04-.05-.09-.04-.13.03-.14.03-.14-.08,0-.38,0-.77,0-1.15,0-.81,0-1.61,0-2.42ZM72.71,8.06h0c.34,0,.69,0,1.03,0,.14,0,.14,0,.15-.14,0-.24,0-.48,0-.72,0-.43,0-.86,0-1.29,0-.15,0-.15-.16-.15-.14,0-.29,0-.43,0-.53,0-1.05,0-1.58,0-.09,0-.13.02-.13.13,0,.68,0,1.36,0,2.04,0,.13,0,.14.15.14.33,0,.65,0,.98,0ZM73.43,15.72s-.02-.04-.04-.05c-.03,0-.06,0-.06.04,0,.04,0,.07.06.07.03,0,.05-.02.05-.06Z"/><path class="d" d="M72.71,8.06c-.33,0-.65,0-.98,0-.14,0-.15,0-.15-.14,0-.68,0-1.36,0-2.04,0-.11.04-.13.13-.13.53,0,1.05,0,1.58,0,.14,0,.29,0,.43,0,.16,0,.16,0,.16.15,0,.43,0,.86,0,1.29,0,.24,0,.48,0,.72,0,.13,0,.14-.15.14-.34,0-.69,0-1.03,0h0Z"/><path class="c" d="M73.43,15.72s-.02.06-.05.06c-.05,0-.06-.03-.06-.07,0-.03.03-.04.06-.04.03,0,.05.02.04.05Z"/></svg>