<svg xmlns="http://www.w3.org/2000/svg" width="110.8" height="110.8"><defs><style>.c,.e{fill:#fe3f5b;stroke-width:0}.e{fill:#fefefe}</style></defs><circle id="a" cx="55.4" cy="55.4" r="55.4" class="c"/><g id="b"><path d="M35.1 44.2c-2.8-.5-3-.8-3-3.6 0-1.2-.1-2.5.1-3.6a5.6 5.6 0 0 1 5.6-4.5h7.4l.3-.2v-3.5c0-1.8.9-2.6 2.5-2.6h14.7c1.7 0 2.5.9 2.6 2.5v3.5l.2.3h7.2c3.6 0 6 2.5 6 6v2.2c0 2.7-.3 3.1-3 3.5v31c0 6.2-3.3 9.4-9.4 9.4H43.7c-5 0-8.6-3.5-8.6-8.5V44.2Zm4.4 0v32.1c0 2.4 1.7 4 4.1 4h23.1c3.1 0 4.6-1.5 4.6-4.7V44.1H39.5Zm-3-4.5h37.9c.2-2.5-.2-2.9-2.6-2.9H39c-2.4 0-2.8.4-2.6 2.9Zm13.4-7.3h11v-1.8h-11v1.8Z" class="e"/><path d="M39.5 44.1h31.9v31.5c0 3.2-1.5 4.7-4.7 4.7h-23c-2.5 0-4.2-1.6-4.2-4V44Zm9 18V50.7c0-1.8-.8-2.7-2.2-2.7-1.3 0-2.1 1-2.1 2.6v23.1c0 1.7.9 2.7 2.2 2.7 1.3 0 2-1 2-2.6V62Zm4.7 0v11.5c0 1.7.9 2.8 2.2 2.8 1.4 0 2.2-1 2.2-2.7v-23c0-1.7-.8-2.7-2.2-2.7-1.4 0-2.2 1-2.2 2.6v11.6Zm9.1 0v11.7c0 1.6.8 2.5 2.1 2.5s2.2-1 2.2-2.6v-23c0-1.8-.8-2.7-2.2-2.7-1.3 0-2.1 1-2.1 2.5v11.6ZM36.4 39.7c-.2-2.5.1-2.9 2.6-2.9h32.8c2.5 0 2.8.4 2.6 2.9h-38Z" class="c"/><path fill="#fe405b" stroke-width="0" d="M49.9 32.4v-1.8h11v1.8h-11Z"/><path d="M48.5 62v11.8c0 1.6-.8 2.5-2.1 2.6-1.3 0-2.2-1-2.2-2.7v-23c0-1.8.8-2.7 2.1-2.7 1.4 0 2.2 1 2.2 2.6v11.5ZM53.2 62.2V50.6c0-1.7.8-2.6 2.2-2.6 1.4 0 2.1 1 2.1 2.7v23c0 1.6-.8 2.6-2 2.6-1.4 0-2.3-1-2.3-2.7V62.2ZM62.3 62.1V50.6c0-1.7.8-2.6 2.1-2.6 1.4 0 2.2 1 2.2 2.6v23.1c0 1.6-.9 2.7-2.2 2.7-1.3 0-2-1-2.1-2.6V62Z" class="e"/></g></svg>